<svg width="30" height="40" viewBox="0 0 30 40" fill="none" xmlns="http://www.w3.org/2000/svg">
<path d="M15 39.6429C13.9 39.6429 12.958 39.2544 12.174 38.4774C11.39 37.7004 10.9987 36.7674 11 35.6786H19C19 36.7687 18.608 37.7023 17.824 38.4793C17.04 39.2563 16.0987 39.6442 15 39.6429ZM7 33.6964V29.7321H23V33.6964H7ZM7.5 27.75C5.2 26.3955 3.3747 24.5786 2.024 22.2991C0.673302 20.0196 -0.00129812 17.542 1.87528e-06 14.8661C1.87528e-06 10.7366 1.4587 7.2262 4.376 4.3349C7.2933 1.44366 10.8347 -0.0013191 15 9.03547e-07C19.1667 9.03547e-07 22.7087 1.44564 25.626 4.3369C28.5433 7.2282 30.0013 10.7379 30 14.8661C30 17.542 29.3253 20.0196 27.976 22.2991C26.6267 24.5786 24.8013 26.3955 22.5 27.75H7.5ZM8.7 23.7857H21.3C22.8 22.7286 23.9587 21.4237 24.776 19.871C25.5933 18.3183 26.0013 16.65 26 14.8661C26 11.8268 24.9333 9.25 22.8 7.1357C20.6667 5.0214 18.0667 3.9643 15 3.9643C11.9333 3.9643 9.3333 5.0214 7.2 7.1357C5.0667 9.25 4 11.8268 4 14.8661C4 16.65 4.4087 18.3183 5.226 19.871C6.0433 21.4237 7.2013 22.7286 8.7 23.7857Z" fill="#7dee2b"/>
</svg>
