<svg width="270" height="48.72" viewBox="0 0 584 49" fill="none" xmlns="http://www.w3.org/2000/svg">
<g clip-path="url(#clip0_2928_11)">
<path d="M46 21.36V0.360001H56.26C58.9 0.360001 60.88 0.860001 62.2 1.86C63.54 2.86 64.21 4.18 64.21 5.82C64.21 6.92 63.94 7.88 63.4 8.7C62.86 9.5 62.12 10.12 61.18 10.56C60.24 11 59.16 11.22 57.94 11.22L58.51 9.99C59.83 9.99 61 10.21 62.02 10.65C63.04 11.07 63.83 11.7 64.39 12.54C64.97 13.38 65.26 14.41 65.26 15.63C65.26 17.43 64.55 18.84 63.13 19.86C61.71 20.86 59.62 21.36 56.86 21.36H46ZM50.83 17.7H56.5C57.76 17.7 58.71 17.5 59.35 17.1C60.01 16.68 60.34 16.02 60.34 15.12C60.34 14.22 60.01 13.59 59.35 13.17C58.71 12.73 57.76 12.51 56.5 12.51H50.47V8.97H55.66C56.84 8.97 57.74 8.77 58.36 8.37C59 7.95 59.32 7.32 59.32 6.48C59.32 5.64 59 5.05 58.36 4.65C57.74 4.23 56.84 4.02 55.66 4.02H50.83V17.7Z" fill="#73DC27"/>
<path d="M78.2698 21.72C75.2898 21.72 72.9598 20.89 71.2798 19.23C69.5998 17.57 68.7598 15.2 68.7598 12.12V0.360001H73.6198V11.94C73.6198 13.94 74.0298 15.38 74.8498 16.26C75.6698 17.14 76.8198 17.58 78.2998 17.58C79.7798 17.58 80.9298 17.14 81.7498 16.26C82.5698 15.38 82.9798 13.94 82.9798 11.94V0.360001H87.7798V12.12C87.7798 15.2 86.9398 17.57 85.2598 19.23C83.5798 20.89 81.2498 21.72 78.2698 21.72Z" fill="#73DC27"/>
<path d="M99.4797 21.72C97.7997 21.72 96.1897 21.5 94.6497 21.06C93.1097 20.6 91.8697 20.01 90.9297 19.29L92.5797 15.63C93.4797 16.27 94.5397 16.8 95.7597 17.22C96.9997 17.62 98.2497 17.82 99.5097 17.82C100.47 17.82 101.24 17.73 101.82 17.55C102.42 17.35 102.86 17.08 103.14 16.74C103.42 16.4 103.56 16.01 103.56 15.57C103.56 15.01 103.34 14.57 102.9 14.25C102.46 13.91 101.88 13.64 101.16 13.44C100.44 13.22 99.6397 13.02 98.7597 12.84C97.8997 12.64 97.0297 12.4 96.1497 12.12C95.2897 11.84 94.4997 11.48 93.7797 11.04C93.0597 10.6 92.4697 10.02 92.0097 9.3C91.5697 8.58 91.3497 7.66 91.3497 6.54C91.3497 5.34 91.6697 4.25 92.3097 3.27C92.9697 2.27 93.9497 1.48 95.2497 0.9C96.5697 0.3 98.2197 0 100.2 0C101.52 0 102.82 0.16 104.1 0.48C105.38 0.78 106.51 1.24 107.49 1.86L105.99 5.55C105.01 4.99 104.03 4.58 103.05 4.32C102.07 4.04 101.11 3.9 100.17 3.9C99.2297 3.9 98.4597 4.01 97.8597 4.23C97.2597 4.45 96.8297 4.74 96.5697 5.1C96.3097 5.44 96.1797 5.84 96.1797 6.3C96.1797 6.84 96.3997 7.28 96.8397 7.62C97.2797 7.94 97.8597 8.2 98.5797 8.4C99.2997 8.6 100.09 8.8 100.95 9C101.83 9.2 102.7 9.43 103.56 9.69C104.44 9.95 105.24 10.3 105.96 10.74C106.68 11.18 107.26 11.76 107.7 12.48C108.16 13.2 108.39 14.11 108.39 15.21C108.39 16.39 108.06 17.47 107.4 18.45C106.74 19.43 105.75 20.22 104.43 20.82C103.13 21.42 101.48 21.72 99.4797 21.72Z" fill="#73DC27"/>
<path d="M118.61 21.72C116.93 21.72 115.32 21.5 113.78 21.06C112.24 20.6 111 20.01 110.06 19.29L111.71 15.63C112.61 16.27 113.67 16.8 114.89 17.22C116.13 17.62 117.38 17.82 118.64 17.82C119.6 17.82 120.37 17.73 120.95 17.55C121.55 17.35 121.99 17.08 122.27 16.74C122.55 16.4 122.69 16.01 122.69 15.57C122.69 15.01 122.47 14.57 122.03 14.25C121.59 13.91 121.01 13.64 120.29 13.44C119.57 13.22 118.77 13.02 117.89 12.84C117.03 12.64 116.16 12.4 115.28 12.12C114.42 11.84 113.63 11.48 112.91 11.04C112.19 10.6 111.6 10.02 111.14 9.3C110.7 8.58 110.48 7.66 110.48 6.54C110.48 5.34 110.8 4.25 111.44 3.27C112.1 2.27 113.08 1.48 114.38 0.9C115.7 0.3 117.35 0 119.33 0C120.65 0 121.95 0.16 123.23 0.48C124.51 0.78 125.64 1.24 126.62 1.86L125.12 5.55C124.14 4.99 123.16 4.58 122.18 4.32C121.2 4.04 120.24 3.9 119.3 3.9C118.36 3.9 117.59 4.01 116.99 4.23C116.39 4.45 115.96 4.74 115.7 5.1C115.44 5.44 115.31 5.84 115.31 6.3C115.31 6.84 115.53 7.28 115.97 7.62C116.41 7.94 116.99 8.2 117.71 8.4C118.43 8.6 119.22 8.8 120.08 9C120.96 9.2 121.83 9.43 122.69 9.69C123.57 9.95 124.37 10.3 125.09 10.74C125.81 11.18 126.39 11.76 126.83 12.48C127.29 13.2 127.52 14.11 127.52 15.21C127.52 16.39 127.19 17.47 126.53 18.45C125.87 19.43 124.88 20.22 123.56 20.82C122.26 21.42 120.61 21.72 118.61 21.72Z" fill="#73DC27"/>
<path d="M130.84 21.36V0.360001H135.7V21.36H130.84Z" fill="#73DC27"/>
<path d="M140.69 21.36V0.360001H144.71L157.1 15.48H155.15V0.360001H159.95V21.36H155.96L143.54 6.24H145.49V21.36H140.69Z" fill="#73DC27"/>
<path d="M169.38 8.82H179.49V12.6H169.38V8.82ZM169.74 17.46H181.17V21.36H164.91V0.360001H180.78V4.26H169.74V17.46Z" fill="#73DC27"/>
<path d="M191.94 21.72C190.26 21.72 188.65 21.5 187.11 21.06C185.57 20.6 184.33 20.01 183.39 19.29L185.04 15.63C185.94 16.27 187 16.8 188.22 17.22C189.46 17.62 190.71 17.82 191.97 17.82C192.93 17.82 193.7 17.73 194.28 17.55C194.88 17.35 195.32 17.08 195.6 16.74C195.88 16.4 196.02 16.01 196.02 15.57C196.02 15.01 195.8 14.57 195.36 14.25C194.92 13.91 194.34 13.64 193.62 13.44C192.9 13.22 192.1 13.02 191.22 12.84C190.36 12.64 189.49 12.4 188.61 12.12C187.75 11.84 186.96 11.48 186.24 11.04C185.52 10.6 184.93 10.02 184.47 9.3C184.03 8.58 183.81 7.66 183.81 6.54C183.81 5.34 184.13 4.25 184.77 3.27C185.43 2.27 186.41 1.48 187.71 0.9C189.03 0.3 190.68 0 192.66 0C193.98 0 195.28 0.16 196.56 0.48C197.84 0.78 198.97 1.24 199.95 1.86L198.45 5.55C197.47 4.99 196.49 4.58 195.51 4.32C194.53 4.04 193.57 3.9 192.63 3.9C191.69 3.9 190.92 4.01 190.32 4.23C189.72 4.45 189.29 4.74 189.03 5.1C188.77 5.44 188.64 5.84 188.64 6.3C188.64 6.84 188.86 7.28 189.3 7.62C189.74 7.94 190.32 8.2 191.04 8.4C191.76 8.6 192.55 8.8 193.41 9C194.29 9.2 195.16 9.43 196.02 9.69C196.9 9.95 197.7 10.3 198.42 10.74C199.14 11.18 199.72 11.76 200.16 12.48C200.62 13.2 200.85 14.11 200.85 15.21C200.85 16.39 200.52 17.47 199.86 18.45C199.2 19.43 198.21 20.22 196.89 20.82C195.59 21.42 193.94 21.72 191.94 21.72Z" fill="#73DC27"/>
<path d="M11.52 48.72C9.86 48.72 8.32 48.45 6.9 47.91C5.5 47.37 4.28 46.61 3.24 45.63C2.22 44.65 1.42 43.5 0.84 42.18C0.28 40.86 0 39.42 0 37.86C0 36.3 0.28 34.86 0.84 33.54C1.42 32.22 2.23 31.07 3.27 30.09C4.31 29.11 5.53 28.35 6.93 27.81C8.33 27.27 9.85 27 11.49 27C13.13 27 14.67 27.27 16.05 27.81C17.45 28.35 18.66 29.11 19.68 30.09C20.72 31.07 21.53 32.22 22.11 33.54C22.69 34.84 22.98 36.28 22.98 37.86C22.98 39.44 22.69 40.87 22.11 42.21C21.53 43.53 20.72 44.68 19.68 45.66C18.66 46.62 17.45 47.37 16.05 47.91C14.67 48.45 13.16 48.72 11.52 48.72ZM11.49 44.58C12.43 44.58 13.29 44.42 14.07 44.1C14.87 43.78 15.57 43.32 16.17 42.72C16.77 42.12 17.23 41.41 17.55 40.59C17.89 39.77 18.06 38.86 18.06 37.86C18.06 36.86 17.89 35.95 17.55 35.13C17.23 34.31 16.77 33.6 16.17 33C15.59 32.4 14.9 31.94 14.1 31.62C13.3 31.3 12.43 31.14 11.49 31.14C10.55 31.14 9.68 31.3 8.88 31.62C8.1 31.94 7.41 32.4 6.81 33C6.21 33.6 5.74 34.31 5.4 35.13C5.08 35.95 4.92 36.86 4.92 37.86C4.92 38.86 5.08 39.75 5.4 40.59C5.74 41.41 6.2 42.12 6.78 42.72C7.38 43.32 8.08 43.78 8.88 44.1C9.68 44.42 10.55 44.58 11.49 44.58Z" fill="#73DC27"/>
<path d="M26.6299 48.36V27.36H35.7199C37.5999 27.36 39.2199 27.67 40.5799 28.29C41.9399 28.89 42.9899 29.76 43.7299 30.9C44.4699 32.04 44.8399 33.4 44.8399 34.98C44.8399 36.56 44.4699 37.89 43.7299 39.03C42.9899 40.15 41.9399 41.01 40.5799 41.61C39.2199 42.21 37.5999 42.51 35.7199 42.51H29.3299L31.4899 40.38V48.36H26.6299ZM39.9799 48.36L34.7299 40.74H39.9199L45.2299 48.36H39.9799ZM31.4899 40.92L29.3299 38.64H35.4499C36.9499 38.64 38.0699 38.32 38.8099 37.68C39.5499 37.02 39.9199 36.12 39.9199 34.98C39.9199 33.84 39.5499 32.92 38.8099 32.28C38.0699 31.64 36.9499 31.32 35.4499 31.32H29.3299L31.4899 29.01V40.92Z" fill="#73DC27"/>
<path d="M58.8301 48.72C57.1701 48.72 55.6401 48.46 54.2401 47.94C52.8601 47.4 51.6501 46.64 50.6101 45.66C49.5901 44.68 48.7901 43.53 48.2101 42.21C47.6501 40.89 47.3701 39.44 47.3701 37.86C47.3701 36.28 47.6501 34.83 48.2101 33.51C48.7901 32.19 49.6001 31.04 50.6401 30.06C51.6801 29.08 52.9001 28.33 54.3001 27.81C55.7001 27.27 57.2401 27 58.9201 27C60.7801 27 62.4501 27.31 63.9301 27.93C65.4301 28.55 66.6901 29.45 67.7101 30.63L64.5901 33.51C63.8301 32.71 63.0001 32.12 62.1001 31.74C61.2001 31.34 60.2201 31.14 59.1601 31.14C58.1001 31.14 57.2101 31.3 56.3701 31.62C55.5301 31.94 54.8001 32.4 54.1801 33C53.5801 33.6 53.1101 34.31 52.7701 35.13C52.4501 35.95 52.2901 36.86 52.2901 37.86C52.2901 38.86 52.4501 39.74 52.7701 40.56C53.1101 41.38 53.5801 42.1 54.1801 42.72C54.8001 43.32 55.5201 43.78 56.3401 44.1C57.1801 44.42 58.1001 44.58 59.1001 44.58C60.1001 44.58 60.9901 44.43 61.8901 44.13C62.8101 43.81 63.7001 43.28 64.5601 42.54L67.3201 46.05C66.1801 46.91 64.8501 47.57 63.3301 48.03C61.8301 48.49 60.3301 48.72 58.8301 48.72ZM62.8801 45.42V37.53H67.3201V46.05L62.8801 45.42Z" fill="#73DC27"/>
<path d="M69.0801 48.36L78.4401 27.36H83.2401L92.6301 48.36H87.5301L79.8501 29.82H81.7701L74.0601 48.36H69.0801ZM73.7601 43.86L75.0501 40.17H85.8501L87.1701 43.86H73.7601Z" fill="#73DC27"/>
<path d="M94.8096 48.36V27.36H98.8296L111.22 42.48H109.27V27.36H114.07V48.36H110.08L97.6596 33.24H99.6096V48.36H94.8096Z" fill="#73DC27"/>
<path d="M119.03 48.36V27.36H123.89V48.36H119.03Z" fill="#73DC27"/>
<path d="M127.53 48.36V45.21L140.52 29.55L141.12 31.32H127.77V27.36H145.44V30.51L132.48 46.17L131.88 44.4H145.89V48.36H127.53Z" fill="#73DC27"/>
<path d="M146.25 48.36L155.61 27.36H160.41L169.8 48.36H164.7L157.02 29.82H158.94L151.23 48.36H146.25ZM150.93 43.86L152.22 40.17H163.02L164.34 43.86H150.93Z" fill="#73DC27"/>
<path d="M175.27 48.36V31.32H168.55V27.36H186.85V31.32H180.13V48.36H175.27Z" fill="#73DC27"/>
<path d="M189.46 48.36V27.36H194.32V48.36H189.46Z" fill="#73DC27"/>
<path d="M209.51 48.72C207.85 48.72 206.31 48.45 204.89 47.91C203.49 47.37 202.27 46.61 201.23 45.63C200.21 44.65 199.41 43.5 198.83 42.18C198.27 40.86 197.99 39.42 197.99 37.86C197.99 36.3 198.27 34.86 198.83 33.54C199.41 32.22 200.22 31.07 201.26 30.09C202.3 29.11 203.52 28.35 204.92 27.81C206.32 27.27 207.84 27 209.48 27C211.12 27 212.66 27.27 214.04 27.81C215.44 28.35 216.65 29.11 217.67 30.09C218.71 31.07 219.52 32.22 220.1 33.54C220.68 34.84 220.97 36.28 220.97 37.86C220.97 39.44 220.68 40.87 220.1 42.21C219.52 43.53 218.71 44.68 217.67 45.66C216.65 46.62 215.44 47.37 214.04 47.91C212.66 48.45 211.15 48.72 209.51 48.72ZM209.48 44.58C210.42 44.58 211.28 44.42 212.06 44.1C212.86 43.78 213.56 43.32 214.16 42.72C214.76 42.12 215.22 41.41 215.54 40.59C215.88 39.77 216.05 38.86 216.05 37.86C216.05 36.86 215.88 35.95 215.54 35.13C215.22 34.31 214.76 33.6 214.16 33C213.58 32.4 212.89 31.94 212.09 31.62C211.29 31.3 210.42 31.14 209.48 31.14C208.54 31.14 207.67 31.3 206.87 31.62C206.09 31.94 205.4 32.4 204.8 33C204.2 33.6 203.73 34.31 203.39 35.13C203.07 35.95 202.91 36.86 202.91 37.86C202.91 38.86 203.07 39.75 203.39 40.59C203.73 41.41 204.19 42.12 204.77 42.72C205.37 43.32 206.07 43.78 206.87 44.1C207.67 44.42 208.54 44.58 209.48 44.58Z" fill="#73DC27"/>
<path d="M224.62 48.36V27.36H228.64L241.03 42.48H239.08V27.36H243.88V48.36H239.89L227.47 33.24H229.42V48.36H224.62Z" fill="#73DC27"/>
<path d="M343.23 23.12L363.71 47.43H352.07L337.58 30.2H336.67L333.55 33.26V47.43H324.84V1.92999H333.55V18.7H334.53L349.29 1.92999H361.18L343.3 22.21V23.12H343.23Z" fill="#487EED"/>
<path d="M364.3 1.86H400.83V9.92H386.92V47.36H378.21V9.92H364.3V1.86Z" fill="#487EED"/>
<path d="M413.39 15.58C413.39 22.73 447 17.73 447 33.52C447 43.08 439.46 47.89 425.1 47.89C411.71 47.89 403.26 41.52 403.26 32.29H411.97C411.97 35.93 415.09 39.83 425.1 39.83C435.11 39.83 438.23 37.43 438.23 33.52C438.23 26.7 404.63 31.18 404.63 15.58C404.63 6.22 410.74 1.41 425.11 1.41C438.5 1.41 445.26 7.32 445.26 17.14H436.49C435.9 13.5 433.95 9.47 425.11 9.47C416.27 9.47 413.41 12 413.41 15.58H413.39Z" fill="#F7F7F7"/>
<path d="M480.95 1.86H489.72V47.36H480.95V28.7H461.71V47.36H453V1.86H461.71V20.64H480.95V1.86Z" fill="#F7F7F7"/>
<path d="M517.58 1.41C532.53 1.48 539.48 11.81 539.48 24.68C539.48 37.55 532.72 47.82 517.58 47.89C502.43 47.82 495.74 37.49 495.74 24.68C495.74 11.87 502.63 1.48 517.58 1.41ZM517.58 39.82C525.44 39.82 530.71 33.78 530.71 24.67C530.71 15.56 525.44 9.53 517.58 9.53C509.72 9.53 504.45 15.83 504.45 24.67C504.45 33.51 509.71 39.82 517.58 39.82Z" fill="#F7F7F7"/>
<path d="M567.84 1.86C576.81 1.86 583.76 9.21 583.76 18.17C583.76 27.13 576.81 34.03 567.84 34.03H554.25V47.36H545.54V1.86H567.83H567.84ZM574.99 17.98C574.99 13.82 571.22 9.92 567.13 9.92H554.26V25.98H567.13C571.22 25.98 574.99 22.14 574.99 17.98Z" fill="#F7F7F7"/>
<path d="M293.64 10.36L297.88 14.6L273.84 38.64L269.6 34.4L293.64 10.36Z" fill="#505050"/>
<path d="M269.59 14.6L273.83 10.36L297.87 34.4L293.63 38.64L269.59 14.6Z" fill="#505050"/>
</g>
<defs>
<clipPath id="clip0_2928_11">
<rect width="583.76" height="48.72" fill="white"/>
</clipPath>
</defs>
</svg>
