<svg width="37" height="32" viewBox="0 0 37 32" fill="none" xmlns="http://www.w3.org/2000/svg">
<path fill-rule="evenodd" clip-rule="evenodd" d="M36.8133 3.19723C36.8933 2.71193 36.8417 2.21413 36.6638 1.75563C36.486 1.29703 36.1885 0.894625 35.8022 0.590225C35.416 0.285825 34.9552 0.0905255 34.4678 0.0247255C33.9804 -0.0410745 33.4843 0.0250252 33.0312 0.216225L1.6812 13.4162C-0.504131 14.3365 -0.615971 17.4972 1.6812 18.4505C3.95584 19.3991 6.26364 20.2662 8.60024 21.0502C10.7415 21.7578 13.0772 22.4123 14.949 22.5975C15.4605 23.2098 16.104 23.7983 16.7603 24.3392C17.7632 25.1642 18.9695 26.013 20.2162 26.827C22.7132 28.4587 25.4833 30.0188 27.3497 31.0345C29.5808 32.2445 32.252 30.8512 32.6517 28.4183L36.8133 3.19723ZM5.19574 15.9132L32.923 4.24032L29.04 27.7803C27.2085 26.7848 24.5703 25.2943 22.22 23.758C21.1367 23.0625 20.0909 22.3104 19.0868 21.5048C18.8184 21.2856 18.5579 21.0569 18.3058 20.8192L25.5677 13.5592C25.9117 13.2154 26.105 12.749 26.1052 12.2627C26.1054 11.7764 25.9123 11.3099 25.5686 10.9659C25.2248 10.6219 24.7585 10.4285 24.2721 10.4284C23.7858 10.4282 23.3193 10.6212 22.9753 10.965L15.0242 18.9162C13.6785 18.7438 11.8048 18.2452 9.74784 17.5668C8.21644 17.0567 6.69734 16.5052 5.19574 15.9132Z" fill="#7dee2b"/>
</svg>
