<svg width="113" height="37" viewBox="0 0 113 37" fill="none" xmlns="http://www.w3.org/2000/svg">
<path d="M42.9023 0.658756L28.1087 36.4415H18.4567L11.1776 7.88118C10.735 6.1245 10.3536 5.48007 9.00704 4.74016C6.81296 3.53245 3.18754 2.40111 0 1.69462L0.216583 0.658756H15.7541C16.7694 0.657724 17.7517 1.02472 18.5236 1.6935C19.2954 2.36228 19.8061 3.28878 19.9633 4.30577L23.81 25.0135L33.3115 0.658756H42.9023ZM80.7244 24.7605C80.762 15.3136 67.8424 14.7933 67.9318 10.5735C67.9601 9.28938 69.1654 7.92414 71.8021 7.57567C74.8921 7.27814 78.0041 7.83229 80.8091 9.17959L82.41 1.5896C79.679 0.548701 76.7866 0.0103902 73.869 0C64.8432 0 58.4916 4.86905 58.4351 11.8337C58.3786 16.9844 62.9693 19.8533 66.4299 21.5718C69.9894 23.3237 71.1853 24.4503 71.1665 26.016C71.1429 28.4219 68.332 29.4768 65.7048 29.5198C61.1142 29.5914 58.454 28.2644 56.3258 27.2619L54.6732 35.1001C56.806 36.093 60.7422 36.9618 64.8243 37C74.4152 37 80.6914 32.1978 80.7244 24.7605ZM104.553 36.4415H113L105.631 0.658756H97.8345C97.0014 0.650929 96.1852 0.897046 95.4917 1.36519C94.7983 1.83333 94.2595 2.50191 93.9454 3.28422L80.2488 36.4415H89.835L91.7419 31.0951H103.456L104.553 36.4415ZM94.3691 23.7629L99.1716 10.3252L101.94 23.7629H94.3691ZM55.9491 0.658756L48.4017 36.4415H39.2675L46.8244 0.658756H55.9491Z" fill="#444444"/>
</svg>
